<svg xmlns="http://www.w3.org/2000/svg" width="1200" height="455" fill="none" viewBox="0 0 1200 455"><g opacity=".1"><rect width="172.578" height="172.578" x="-8.456" y="-32.456" stroke="#D9D9D9" stroke-width="1.311"/><rect width="172.578" height="172.578" x="-8.456" y="141.433" stroke="#D9D9D9" stroke-width="1.311"/><rect width="172.578" height="172.578" x="-8.456" y="315.322" stroke="#D9D9D9" stroke-width="1.311"/><rect width="172.578" height="172.578" x="165.433" y="-32.456" stroke="#D9D9D9" stroke-width="1.311"/><rect width="172.578" height="172.578" x="165.433" y="141.433" stroke="#D9D9D9" stroke-width="1.311"/><rect width="172.578" height="172.578" x="165.433" y="315.322" stroke="#D9D9D9" stroke-width="1.311"/><rect width="172.578" height="172.578" x="339.322" y="-32.456" stroke="#D9D9D9" stroke-width="1.311"/><rect width="172.578" height="172.578" x="339.322" y="141.433" stroke="#D9D9D9" stroke-width="1.311"/><rect width="172.578" height="172.578" x="339.322" y="315.322" stroke="#D9D9D9" stroke-width="1.311"/><rect width="172.578" height="172.578" x="513.211" y="-32.456" stroke="#D9D9D9" stroke-width="1.311"/><rect width="172.578" height="172.578" x="513.211" y="141.433" stroke="#D9D9D9" stroke-width="1.311"/><rect width="172.578" height="172.578" x="513.211" y="315.322" stroke="#D9D9D9" stroke-width="1.311"/><rect width="172.578" height="172.578" x="687.1" y="-32.456" stroke="#D9D9D9" stroke-width="1.311"/><rect width="172.578" height="172.578" x="687.1" y="141.433" stroke="#D9D9D9" stroke-width="1.311"/><rect width="172.578" height="172.578" x="687.1" y="315.322" stroke="#D9D9D9" stroke-width="1.311"/><rect width="172.578" height="172.578" x="860.989" y="-32.456" stroke="#D9D9D9" stroke-width="1.311"/><rect width="172.578" height="172.578" x="860.989" y="141.433" stroke="#D9D9D9" stroke-width="1.311"/><rect width="172.578" height="172.578" x="860.989" y="315.322" stroke="#D9D9D9" stroke-width="1.311"/><rect width="172.578" height="172.578" x="1034.88" y="-32.456" stroke="#D9D9D9" stroke-width="1.311"/><rect width="172.578" height="172.578" x="1034.88" y="141.433" stroke="#D9D9D9" stroke-width="1.311"/><rect width="172.578" height="172.578" x="1034.88" y="315.322" stroke="#D9D9D9" stroke-width="1.311"/></g></svg>