<?xml version="1.0" encoding="UTF-8"?>
<svg xmlns="http://www.w3.org/2000/svg" xmlns:xlink="http://www.w3.org/1999/xlink" width="37.5pt" height="37.5pt"
    viewBox="0 0 37.5 37.5" version="1.1">
    <g id="surface15215">
        <path style=" stroke:none;fill-rule:nonzero;fill:rgb(0.392157%,25.098041%,100%);fill-opacity:1;"
            d="M 18.5 1.480469 C 9.117188 1.480469 1.480469 9.117188 1.480469 18.5 C 1.480469 27.882812 9.117188 35.519531 18.5 35.519531 C 27.882812 35.519531 35.519531 27.882812 35.519531 18.5 C 35.519531 15.097656 34.511719 11.929688 32.785156 9.265625 L 31.691406 10.359375 L 29.777344 10.359375 L 27.757812 12.382812 C 28.917969 14.136719 29.601562 16.238281 29.601562 18.5 C 29.601562 24.628906 24.628906 29.601562 18.5 29.601562 C 12.371094 29.601562 7.398438 24.628906 7.398438 18.5 C 7.398438 12.371094 12.371094 7.398438 18.5 7.398438 C 20.761719 7.398438 22.863281 8.082031 24.617188 9.242188 L 26.640625 7.222656 L 26.640625 5.308594 L 27.074219 4.875 L 27.730469 4.214844 C 25.070312 2.488281 21.902344 1.480469 18.5 1.480469 Z M 31.820312 2.21875 L 28.121094 5.921875 L 28.121094 7.832031 L 17.976562 17.976562 C 17.785156 18.164062 17.707031 18.4375 17.773438 18.699219 C 17.839844 18.957031 18.042969 19.160156 18.300781 19.226562 C 18.5625 19.292969 18.835938 19.214844 19.023438 19.023438 L 29.167969 8.878906 L 31.078125 8.878906 L 34.78125 5.179688 L 31.820312 5.179688 Z M 18.5 11.839844 C 14.828125 11.839844 11.839844 14.828125 11.839844 18.5 C 11.839844 22.171875 14.828125 25.160156 18.5 25.160156 C 22.171875 25.160156 25.160156 22.171875 25.160156 18.5 C 25.160156 17.472656 24.917969 16.503906 24.503906 15.636719 L 20.070312 20.070312 C 19.652344 20.488281 19.09375 20.71875 18.5 20.71875 C 17.90625 20.71875 17.347656 20.488281 16.929688 20.070312 C 16.511719 19.652344 16.28125 19.09375 16.28125 18.5 C 16.28125 17.90625 16.511719 17.347656 16.929688 16.929688 L 21.363281 12.496094 C 20.496094 12.078125 19.527344 11.839844 18.5 11.839844 Z M 18.5 11.839844 " />
    </g>
</svg>